# xmcd
#
# Track frame offsets: 
#        150
#        19138
#        45092
#        63527
#        86493
#        102147
#        124299
#        137370
#        155652
#        178319
#        197623
#
# Disc length: 3012 seconds
#
# Revision: 1
# Processed by: cddbd v1.5.2PL0 Copyright (c) Steve Scherf et al.
# Submitted via: ExactAudioCopyFreeDBPlugin 1.0
#
DISCID=8d0bc20b
DTITLE=Nicole Willis - Happiness in Every Style
DYEAR=2015
DGENRE=Soul
TTITLE0=One in a Million
TTITLE1=Where Are You Now
TTITLE2=Let's Communicate
TTITLE3=Angel
TTITLE4=Bad Vibrations
TTITLE5=Togehter We Climb
TTITLE6=Open Sky
TTITLE7=Paint Me in a Corner
TTITLE8=Thief in the Night
TTITLE9=Vulture's Prayer
TTITLE10=Hot Sauce
EXTD=
EXTT0=One In A Million
EXTT1=Where Are You Now
EXTT2=Let's Communicate
EXTT3=Angel
EXTT4=Bad Vibrations
EXTT5=Togehter We Climb
EXTT6=Open Sky
EXTT7=Paint Me In A Corner
EXTT8=Thief In The Night
EXTT9=Vulture's Prayer
EXTT10=Hot Sauce
PLAYORDER=
